<mxfile host="app.diagrams.net" agent="Mozilla/5.0 (Windows NT 10.0; Win64; x64) AppleWebKit/537.36 (KHTML, like Gecko) Chrome/136.0.0.0 Safari/537.36 Edg/136.0.0.0" version="26.2.5">
  <diagram name="Seite-1" id="UYHotr6VyoTuE8C6EGZY">
    <mxGraphModel dx="1297" dy="748" grid="1" gridSize="10" guides="1" tooltips="1" connect="1" arrows="1" fold="1" page="1" pageScale="1" pageWidth="1654" pageHeight="2336" math="0" shadow="0">
      <root>
        <mxCell id="0" />
        <mxCell id="1" parent="0" />
        <mxCell id="lCX-YfIV8PXD4EPgx7yE-1" value="Berufsschule" style="rounded=0;whiteSpace=wrap;html=1;" vertex="1" parent="1">
          <mxGeometry x="220" y="120" width="620" height="40" as="geometry" />
        </mxCell>
        <mxCell id="lCX-YfIV8PXD4EPgx7yE-2" value="1x b" style="rounded=0;whiteSpace=wrap;html=1;" vertex="1" parent="1">
          <mxGeometry x="220" y="180" width="50" height="50" as="geometry" />
        </mxCell>
        <mxCell id="lCX-YfIV8PXD4EPgx7yE-3" value="2x e" style="rounded=0;whiteSpace=wrap;html=1;" vertex="1" parent="1">
          <mxGeometry x="290" y="180" width="50" height="50" as="geometry" />
        </mxCell>
        <mxCell id="lCX-YfIV8PXD4EPgx7yE-4" value="1x r" style="rounded=0;whiteSpace=wrap;html=1;" vertex="1" parent="1">
          <mxGeometry x="360" y="180" width="50" height="50" as="geometry" />
        </mxCell>
        <mxCell id="lCX-YfIV8PXD4EPgx7yE-5" value="2x u" style="rounded=0;whiteSpace=wrap;html=1;" vertex="1" parent="1">
          <mxGeometry x="430" y="180" width="50" height="50" as="geometry" />
        </mxCell>
        <mxCell id="lCX-YfIV8PXD4EPgx7yE-6" value="1x f" style="rounded=0;whiteSpace=wrap;html=1;" vertex="1" parent="1">
          <mxGeometry x="500" y="180" width="50" height="50" as="geometry" />
        </mxCell>
        <mxCell id="lCX-YfIV8PXD4EPgx7yE-7" value="2x s" style="rounded=0;whiteSpace=wrap;html=1;" vertex="1" parent="1">
          <mxGeometry x="580" y="180" width="50" height="50" as="geometry" />
        </mxCell>
        <mxCell id="lCX-YfIV8PXD4EPgx7yE-8" value="1x c" style="rounded=0;whiteSpace=wrap;html=1;" vertex="1" parent="1">
          <mxGeometry x="650" y="180" width="50" height="50" as="geometry" />
        </mxCell>
        <mxCell id="lCX-YfIV8PXD4EPgx7yE-9" value="1x h" style="rounded=0;whiteSpace=wrap;html=1;" vertex="1" parent="1">
          <mxGeometry x="720" y="180" width="50" height="50" as="geometry" />
        </mxCell>
        <mxCell id="lCX-YfIV8PXD4EPgx7yE-10" value="1x l" style="rounded=0;whiteSpace=wrap;html=1;" vertex="1" parent="1">
          <mxGeometry x="790" y="180" width="50" height="50" as="geometry" />
        </mxCell>
        <mxCell id="lCX-YfIV8PXD4EPgx7yE-16" style="edgeStyle=orthogonalEdgeStyle;rounded=0;orthogonalLoop=1;jettySize=auto;html=1;entryX=0.5;entryY=1;entryDx=0;entryDy=0;" edge="1" parent="1" source="lCX-YfIV8PXD4EPgx7yE-11" target="lCX-YfIV8PXD4EPgx7yE-13">
          <mxGeometry relative="1" as="geometry" />
        </mxCell>
        <mxCell id="lCX-YfIV8PXD4EPgx7yE-11" value="b" style="rounded=0;whiteSpace=wrap;html=1;" vertex="1" parent="1">
          <mxGeometry x="900" y="541" width="50" height="50" as="geometry" />
        </mxCell>
        <mxCell id="lCX-YfIV8PXD4EPgx7yE-15" style="edgeStyle=orthogonalEdgeStyle;rounded=0;orthogonalLoop=1;jettySize=auto;html=1;entryX=0.5;entryY=1;entryDx=0;entryDy=0;" edge="1" parent="1" source="lCX-YfIV8PXD4EPgx7yE-12" target="lCX-YfIV8PXD4EPgx7yE-13">
          <mxGeometry relative="1" as="geometry" />
        </mxCell>
        <mxCell id="lCX-YfIV8PXD4EPgx7yE-12" value="r" style="rounded=0;whiteSpace=wrap;html=1;" vertex="1" parent="1">
          <mxGeometry x="820" y="541" width="50" height="50" as="geometry" />
        </mxCell>
        <mxCell id="lCX-YfIV8PXD4EPgx7yE-13" value="2" style="rounded=0;whiteSpace=wrap;html=1;" vertex="1" parent="1">
          <mxGeometry x="850" y="441" width="50" height="50" as="geometry" />
        </mxCell>
        <mxCell id="lCX-YfIV8PXD4EPgx7yE-14" value="f" style="rounded=0;whiteSpace=wrap;html=1;" vertex="1" parent="1">
          <mxGeometry x="730" y="541" width="50" height="50" as="geometry" />
        </mxCell>
        <mxCell id="lCX-YfIV8PXD4EPgx7yE-22" style="edgeStyle=orthogonalEdgeStyle;rounded=0;orthogonalLoop=1;jettySize=auto;html=1;entryX=1;entryY=0.5;entryDx=0;entryDy=0;" edge="1" parent="1" source="lCX-YfIV8PXD4EPgx7yE-17" target="lCX-YfIV8PXD4EPgx7yE-21">
          <mxGeometry relative="1" as="geometry" />
        </mxCell>
        <mxCell id="lCX-YfIV8PXD4EPgx7yE-17" value="3" style="rounded=0;whiteSpace=wrap;html=1;" vertex="1" parent="1">
          <mxGeometry x="760" y="380" width="50" height="50" as="geometry" />
        </mxCell>
        <mxCell id="lCX-YfIV8PXD4EPgx7yE-18" style="edgeStyle=orthogonalEdgeStyle;rounded=0;orthogonalLoop=1;jettySize=auto;html=1;entryX=1.016;entryY=0.375;entryDx=0;entryDy=0;entryPerimeter=0;" edge="1" parent="1" source="lCX-YfIV8PXD4EPgx7yE-13" target="lCX-YfIV8PXD4EPgx7yE-17">
          <mxGeometry relative="1" as="geometry" />
        </mxCell>
        <mxCell id="lCX-YfIV8PXD4EPgx7yE-19" style="edgeStyle=orthogonalEdgeStyle;rounded=0;orthogonalLoop=1;jettySize=auto;html=1;entryX=0.421;entryY=1.006;entryDx=0;entryDy=0;entryPerimeter=0;" edge="1" parent="1" source="lCX-YfIV8PXD4EPgx7yE-14" target="lCX-YfIV8PXD4EPgx7yE-17">
          <mxGeometry relative="1" as="geometry" />
        </mxCell>
        <mxCell id="lCX-YfIV8PXD4EPgx7yE-23" style="edgeStyle=orthogonalEdgeStyle;rounded=0;orthogonalLoop=1;jettySize=auto;html=1;entryX=0.5;entryY=1;entryDx=0;entryDy=0;" edge="1" parent="1" source="lCX-YfIV8PXD4EPgx7yE-20" target="lCX-YfIV8PXD4EPgx7yE-21">
          <mxGeometry relative="1" as="geometry" />
        </mxCell>
        <mxCell id="lCX-YfIV8PXD4EPgx7yE-20" value="c" style="rounded=0;whiteSpace=wrap;html=1;" vertex="1" parent="1">
          <mxGeometry x="640" y="541" width="50" height="50" as="geometry" />
        </mxCell>
        <mxCell id="lCX-YfIV8PXD4EPgx7yE-27" style="edgeStyle=orthogonalEdgeStyle;rounded=0;orthogonalLoop=1;jettySize=auto;html=1;entryX=1;entryY=0.25;entryDx=0;entryDy=0;" edge="1" parent="1" source="lCX-YfIV8PXD4EPgx7yE-21" target="lCX-YfIV8PXD4EPgx7yE-24">
          <mxGeometry relative="1" as="geometry" />
        </mxCell>
        <mxCell id="lCX-YfIV8PXD4EPgx7yE-21" value="4" style="rounded=0;whiteSpace=wrap;html=1;" vertex="1" parent="1">
          <mxGeometry x="680" y="360" width="50" height="50" as="geometry" />
        </mxCell>
        <mxCell id="lCX-YfIV8PXD4EPgx7yE-29" style="edgeStyle=orthogonalEdgeStyle;rounded=0;orthogonalLoop=1;jettySize=auto;html=1;entryX=1;entryY=0.5;entryDx=0;entryDy=0;" edge="1" parent="1" source="lCX-YfIV8PXD4EPgx7yE-24" target="lCX-YfIV8PXD4EPgx7yE-28">
          <mxGeometry relative="1" as="geometry" />
        </mxCell>
        <mxCell id="lCX-YfIV8PXD4EPgx7yE-24" value="5" style="rounded=0;whiteSpace=wrap;html=1;" vertex="1" parent="1">
          <mxGeometry x="600" y="330" width="50" height="50" as="geometry" />
        </mxCell>
        <mxCell id="lCX-YfIV8PXD4EPgx7yE-25" value="h" style="rounded=0;whiteSpace=wrap;html=1;" vertex="1" parent="1">
          <mxGeometry x="550" y="541" width="50" height="50" as="geometry" />
        </mxCell>
        <mxCell id="lCX-YfIV8PXD4EPgx7yE-26" style="edgeStyle=orthogonalEdgeStyle;rounded=0;orthogonalLoop=1;jettySize=auto;html=1;entryX=0.6;entryY=1.031;entryDx=0;entryDy=0;entryPerimeter=0;" edge="1" parent="1" source="lCX-YfIV8PXD4EPgx7yE-25" target="lCX-YfIV8PXD4EPgx7yE-24">
          <mxGeometry relative="1" as="geometry" />
        </mxCell>
        <mxCell id="lCX-YfIV8PXD4EPgx7yE-28" value="6" style="rounded=0;whiteSpace=wrap;html=1;" vertex="1" parent="1">
          <mxGeometry x="520" y="310" width="50" height="50" as="geometry" />
        </mxCell>
        <mxCell id="lCX-YfIV8PXD4EPgx7yE-30" value="l" style="rounded=0;whiteSpace=wrap;html=1;" vertex="1" parent="1">
          <mxGeometry x="470" y="541" width="50" height="50" as="geometry" />
        </mxCell>
        <mxCell id="lCX-YfIV8PXD4EPgx7yE-31" style="edgeStyle=orthogonalEdgeStyle;rounded=0;orthogonalLoop=1;jettySize=auto;html=1;entryX=0.41;entryY=0.923;entryDx=0;entryDy=0;entryPerimeter=0;" edge="1" parent="1" source="lCX-YfIV8PXD4EPgx7yE-30" target="lCX-YfIV8PXD4EPgx7yE-28">
          <mxGeometry relative="1" as="geometry" />
        </mxCell>
        <mxCell id="lCX-YfIV8PXD4EPgx7yE-38" style="edgeStyle=orthogonalEdgeStyle;rounded=0;orthogonalLoop=1;jettySize=auto;html=1;entryX=1;entryY=0.5;entryDx=0;entryDy=0;" edge="1" parent="1" source="lCX-YfIV8PXD4EPgx7yE-32" target="lCX-YfIV8PXD4EPgx7yE-37">
          <mxGeometry relative="1" as="geometry" />
        </mxCell>
        <mxCell id="lCX-YfIV8PXD4EPgx7yE-32" value="8" style="rounded=0;whiteSpace=wrap;html=1;" vertex="1" parent="1">
          <mxGeometry x="420" y="290" width="50" height="50" as="geometry" />
        </mxCell>
        <mxCell id="lCX-YfIV8PXD4EPgx7yE-33" style="edgeStyle=orthogonalEdgeStyle;rounded=0;orthogonalLoop=1;jettySize=auto;html=1;entryX=0.895;entryY=0.565;entryDx=0;entryDy=0;entryPerimeter=0;" edge="1" parent="1" source="lCX-YfIV8PXD4EPgx7yE-28" target="lCX-YfIV8PXD4EPgx7yE-32">
          <mxGeometry relative="1" as="geometry" />
        </mxCell>
        <mxCell id="lCX-YfIV8PXD4EPgx7yE-34" value="e" style="rounded=0;whiteSpace=wrap;html=1;" vertex="1" parent="1">
          <mxGeometry x="370" y="541" width="50" height="50" as="geometry" />
        </mxCell>
        <mxCell id="lCX-YfIV8PXD4EPgx7yE-36" style="edgeStyle=orthogonalEdgeStyle;rounded=0;orthogonalLoop=1;jettySize=auto;html=1;entryX=0.514;entryY=0.92;entryDx=0;entryDy=0;entryPerimeter=0;" edge="1" parent="1" source="lCX-YfIV8PXD4EPgx7yE-34" target="lCX-YfIV8PXD4EPgx7yE-32">
          <mxGeometry relative="1" as="geometry" />
        </mxCell>
        <mxCell id="lCX-YfIV8PXD4EPgx7yE-42" style="edgeStyle=orthogonalEdgeStyle;rounded=0;orthogonalLoop=1;jettySize=auto;html=1;entryX=1;entryY=0.5;entryDx=0;entryDy=0;" edge="1" parent="1" source="lCX-YfIV8PXD4EPgx7yE-37" target="lCX-YfIV8PXD4EPgx7yE-41">
          <mxGeometry relative="1" as="geometry" />
        </mxCell>
        <mxCell id="lCX-YfIV8PXD4EPgx7yE-37" value="10" style="rounded=0;whiteSpace=wrap;html=1;" vertex="1" parent="1">
          <mxGeometry x="330" y="280" width="50" height="50" as="geometry" />
        </mxCell>
        <mxCell id="lCX-YfIV8PXD4EPgx7yE-40" style="edgeStyle=orthogonalEdgeStyle;rounded=0;orthogonalLoop=1;jettySize=auto;html=1;entryX=0.5;entryY=1;entryDx=0;entryDy=0;" edge="1" parent="1" source="lCX-YfIV8PXD4EPgx7yE-39" target="lCX-YfIV8PXD4EPgx7yE-37">
          <mxGeometry relative="1" as="geometry" />
        </mxCell>
        <mxCell id="lCX-YfIV8PXD4EPgx7yE-39" value="u" style="rounded=0;whiteSpace=wrap;html=1;" vertex="1" parent="1">
          <mxGeometry x="280" y="541" width="50" height="50" as="geometry" />
        </mxCell>
        <mxCell id="lCX-YfIV8PXD4EPgx7yE-41" value="12" style="rounded=0;whiteSpace=wrap;html=1;" vertex="1" parent="1">
          <mxGeometry x="230" y="260" width="50" height="50" as="geometry" />
        </mxCell>
        <mxCell id="lCX-YfIV8PXD4EPgx7yE-44" style="edgeStyle=orthogonalEdgeStyle;rounded=0;orthogonalLoop=1;jettySize=auto;html=1;entryX=0.5;entryY=1;entryDx=0;entryDy=0;" edge="1" parent="1" source="lCX-YfIV8PXD4EPgx7yE-43" target="lCX-YfIV8PXD4EPgx7yE-41">
          <mxGeometry relative="1" as="geometry" />
        </mxCell>
        <mxCell id="lCX-YfIV8PXD4EPgx7yE-43" value="s" style="rounded=0;whiteSpace=wrap;html=1;" vertex="1" parent="1">
          <mxGeometry x="190" y="541" width="50" height="50" as="geometry" />
        </mxCell>
      </root>
    </mxGraphModel>
  </diagram>
</mxfile>
